<svg width="200" height="200" viewBox="0 0 200 200" xmlns="http://www.w3.org/2000/svg">
  <!-- Background Circle -->
  <circle cx="100" cy="100" r="100" fill="#FEE2E2"/>
  
  <!-- Face -->
  <circle cx="100" cy="85" r="55" fill="#FFDBB9"/>
  
  <!-- Hair -->
  <path d="M45 85C45 55 70 30 100 30C130 30 155 55 155 85C155 90 154 95 153 100C153 90 145 85 140 85C140 65 125 50 100 50C75 50 60 65 60 85C55 85 47 90 47 100C46 95 45 90 45 85Z" fill="#222222"/>
  <path d="M60 85C60 70 75 55 100 55C125 55 140 70 140 85C140 95 135 105 130 110C130 100 125 95 120 95C120 85 110 75 100 75C90 75 80 85 80 95C75 95 70 100 70 110C65 105 60 95 60 85Z" fill="#222222"/>
  
  <!-- Eyes -->
  <ellipse cx="80" cy="80" rx="5" ry="7" fill="#3A3A3A"/>
  <ellipse cx="120" cy="80" rx="5" ry="7" fill="#3A3A3A"/>
  
  <!-- Eyebrows -->
  <path d="M75 68C75 68 80 65 85 68" stroke="#222222" stroke-width="2" fill="none"/>
  <path d="M115 68C115 68 120 65 125 68" stroke="#222222" stroke-width="2" fill="none"/>
  
  <!-- Smile -->
  <path d="M85 95C85 105 115 105 115 95" stroke="#C97B63" stroke-width="2" fill="none"/>
  
  <!-- Blush -->
  <circle cx="75" cy="90" r="5" fill="#FFBABA" opacity="0.5"/>
  <circle cx="125" cy="90" r="5" fill="#FFBABA" opacity="0.5"/>
  
  <!-- Clothing -->
  <path d="M60 150C60 120 80 120 100 120C120 120 140 120 140 150" fill="#0057FF"/>
  
  <!-- Earrings -->
  <circle cx="55" cy="85" r="3" fill="#FFD700"/>
  <circle cx="145" cy="85" r="3" fill="#FFD700"/>
  
  <!-- Glasses -->
  <rect x="70" y="75" width="20" height="12" rx="6" ry="6" stroke="#222222" stroke-width="2" fill="none"/>
  <rect x="110" y="75" width="20" height="12" rx="6" ry="6" stroke="#222222" stroke-width="2" fill="none"/>
  <line x1="90" y1="81" x2="110" y2="81" stroke="#222222" stroke-width="2"/>
</svg> 