<svg width="200" height="200" viewBox="0 0 200 200" xmlns="http://www.w3.org/2000/svg">
  <!-- Background Circle -->
  <circle cx="100" cy="100" r="100" fill="#DBEAFE"/>
  
  <!-- Face -->
  <circle cx="100" cy="85" r="55" fill="#F8D8B9"/>
  
  <!-- Hair -->
  <path d="M100 30C70 30 55 45 55 65C55 75 60 85 65 90C65 80 70 75 75 75C75 50 90 40 100 40C110 40 125 50 125 75C130 75 135 80 135 90C140 85 145 75 145 65C145 45 130 30 100 30Z" fill="#333333"/>
  
  <!-- Eyes -->
  <ellipse cx="80" cy="80" rx="5" ry="7" fill="#3A3A3A"/>
  <ellipse cx="120" cy="80" rx="5" ry="7" fill="#3A3A3A"/>
  
  <!-- Eyebrows -->
  <path d="M70 68C70 68 80 65 90 68" stroke="#333333" stroke-width="3" fill="none"/>
  <path d="M110 68C110 68 120 65 130 68" stroke="#333333" stroke-width="3" fill="none"/>
  
  <!-- Smile -->
  <path d="M85 95C85 100 115 100 115 95" stroke="#333333" stroke-width="2" fill="none"/>
  
  <!-- Beard -->
  <path d="M85 105C85 120 115 120 115 105" fill="#333333" opacity="0.3"/>
  
  <!-- Glasses -->
  <rect x="70" y="75" width="20" height="15" rx="5" ry="5" stroke="#333333" stroke-width="2" fill="none"/>
  <rect x="110" y="75" width="20" height="15" rx="5" ry="5" stroke="#333333" stroke-width="2" fill="none"/>
  <line x1="90" y1="82" x2="110" y2="82" stroke="#333333" stroke-width="2"/>
  
  <!-- Clothing -->
  <path d="M60 150C60 120 80 120 100 120C120 120 140 120 140 150" fill="#0057FF"/>
  <rect x="85" y="120" width="30" height="15" fill="white"/>
  <path d="M85 135L85 120L115 120L115 135" stroke="#333333" stroke-width="1" fill="none"/>
</svg> 