<svg width="200" height="200" viewBox="0 0 200 200" xmlns="http://www.w3.org/2000/svg">
  <!-- Background Circle -->
  <circle cx="100" cy="100" r="100" fill="#D1FAE5"/>
  
  <!-- Face -->
  <circle cx="100" cy="85" r="55" fill="#E5C298"/>
  
  <!-- Hair -->
  <path d="M60 60C60 40 80 30 100 30C120 30 140 40 140 60C140 70 135 75 130 80C130 60 120 55 110 55C110 45 105 40 100 40C95 40 90 45 90 55C80 55 70 60 70 80C65 75 60 70 60 60Z" fill="#5E4132"/>
  
  <!-- Beard -->
  <path d="M70 100C70 120 130 120 130 100C130 110 115 120 100 120C85 120 70 110 70 100Z" fill="#5E4132"/>
  
  <!-- Eyes -->
  <ellipse cx="80" cy="80" rx="5" ry="7" fill="#3A3A3A"/>
  <ellipse cx="120" cy="80" rx="5" ry="7" fill="#3A3A3A"/>
  
  <!-- Eyebrows -->
  <path d="M70 68C70 68 80 63 90 68" stroke="#5E4132" stroke-width="3" fill="none"/>
  <path d="M110 68C110 68 120 63 130 68" stroke="#5E4132" stroke-width="3" fill="none"/>
  
  <!-- Nose -->
  <path d="M95 85C95 90 105 90 105 85" stroke="#C97B63" stroke-width="2" fill="none"/>
  
  <!-- Clothing -->
  <path d="M60 150C60 120 80 120 100 120C120 120 140 120 140 150" fill="#0057FF"/>
  
  <!-- Tie -->
  <path d="M95 120L95 140L100 145L105 140L105 120" fill="#FF5C00"/>
  <path d="M95 120L105 120" stroke="#FF5C00" stroke-width="2" fill="none"/>
</svg> 