<svg width="600" height="400" viewBox="0 0 600 400" xmlns="http://www.w3.org/2000/svg">
  <!-- Background elements -->
  <circle cx="300" cy="200" r="150" fill="#E9ECEF" opacity="0.5" />
  <circle cx="300" cy="200" r="100" fill="#0096FF" opacity="0.1" />
  
  <!-- Stylized book or screen -->
  <rect x="200" y="120" width="200" height="160" rx="10" fill="#FFFFFF" stroke="#0096FF" stroke-width="4" />
  
  <!-- Screen content lines -->
  <line x1="220" y1="150" x2="380" y2="150" stroke="#0096FF" stroke-width="2" />
  <line x1="220" y1="170" x2="340" y2="170" stroke="#0096FF" stroke-width="2" />
  <line x1="220" y1="190" x2="360" y2="190" stroke="#0096FF" stroke-width="2" />
  <line x1="220" y1="210" x2="320" y2="210" stroke="#0096FF" stroke-width="2" />
  <line x1="220" y1="230" x2="350" y2="230" stroke="#0096FF" stroke-width="2" />
  
  <!-- Graduation cap -->
  <path d="M300 80 L360 110 L300 140 L240 110 Z" fill="#0096FF" />
  <rect x="295" y="140" width="10" height="30" fill="#0096FF" />
  <ellipse cx="300" cy="170" rx="20" ry="5" fill="#0096FF" />
  
  <!-- Decorative elements -->
  <circle cx="150" cy="100" r="10" fill="#FF6B00" opacity="0.7" />
  <circle cx="450" cy="100" r="10" fill="#FF6B00" opacity="0.7" />
  <circle cx="150" cy="300" r="10" fill="#FF6B00" opacity="0.7" />
  <circle cx="450" cy="300" r="10" fill="#FF6B00" opacity="0.7" />
  
  <!-- Small decorative dots -->
  <circle cx="100" cy="150" r="5" fill="#00C897" opacity="0.7" />
  <circle cx="500" cy="150" r="5" fill="#00C897" opacity="0.7" />
  <circle cx="100" cy="250" r="5" fill="#00C897" opacity="0.7" />
  <circle cx="500" cy="250" r="5" fill="#00C897" opacity="0.7" />
</svg> 