<svg xmlns="http://www.w3.org/2000/svg" width="200" height="200" viewBox="0 0 200 200">
  <!-- Background -->
  <circle cx="100" cy="100" r="100" fill="#4CAF50" />
  
  <!-- Face -->
  <circle cx="100" cy="85" r="55" fill="#A1887F" />
  
  <!-- Hair -->
  <path d="M45,85 Q45,45 100,45 Q155,45 155,85 L155,60 Q155,50 100,50 Q45,50 45,60 Z" fill="#212121" />
  <path d="M45,60 L45,90 Q45,85 50,85 L50,65 Q50,60 55,60 L145,60 Q150,60 150,65 L150,85 Q155,85 155,90 L155,60 Q155,50 100,50 Q45,50 45,60 Z" fill="#212121" />
  
  <!-- Eyes -->
  <circle cx="80" cy="80" r="8" fill="white" />
  <circle cx="120" cy="80" r="8" fill="white" />
  <circle cx="80" cy="80" r="4" fill="#212121" />
  <circle cx="120" cy="80" r="4" fill="#212121" />
  
  <!-- Eyebrows -->
  <path d="M70,70 Q80,65 90,70" fill="none" stroke="#212121" stroke-width="2" />
  <path d="M110,70 Q120,65 130,70" fill="none" stroke="#212121" stroke-width="2" />
  
  <!-- Nose -->
  <path d="M100,85 L95,100 L105,100" fill="#A1887F" />
  
  <!-- Mouth -->
  <path d="M80,110 Q100,120 120,110" fill="none" stroke="#212121" stroke-width="2" />
  
  <!-- Shirt/Uniform -->
  <path d="M60,140 L50,200 L150,200 L140,140 Q120,150 100,150 Q80,150 60,140" fill="#3F51B5" />
  
  <!-- Tech Elements -->
  <rect x="75" y="160" width="50" height="20" rx="5" fill="#212121" />
  <rect x="80" y="165" width="40" height="10" rx="2" fill="#64FFDA" />
  
  <!-- Headphones -->
  <path d="M45,85 Q45,65 55,65 L55,105 Q45,105 45,85 Z" fill="#212121" />
  <path d="M155,85 Q155,65 145,65 L145,105 Q155,105 155,85 Z" fill="#212121" />
  <path d="M55,65 Q55,55 100,55 Q145,55 145,65" fill="none" stroke="#212121" stroke-width="5" />
</svg> 