<svg xmlns="http://www.w3.org/2000/svg" width="200" height="200" viewBox="0 0 200 200">
  <!-- Background -->
  <circle cx="100" cy="100" r="100" fill="#F44336" />
  
  <!-- Face -->
  <circle cx="100" cy="85" r="55" fill="#FFECB3" />
  
  <!-- Hair -->
  <path d="M55,40 Q100,20 145,40 L145,85 Q145,90 140,95 L140,60 Q140,50 100,65 Q60,50 60,60 L60,95 Q55,90 55,85 Z" fill="#795548" />
  <path d="M60,60 Q70,40 100,35 Q130,40 140,60" fill="none" stroke="#795548" stroke-width="10" />
  
  <!-- Eyes -->
  <circle cx="80" cy="80" r="8" fill="white" />
  <circle cx="120" cy="80" r="8" fill="white" />
  <circle cx="80" cy="80" r="4" fill="#5D4037" />
  <circle cx="120" cy="80" r="4" fill="#5D4037" />
  
  <!-- Eyebrows -->
  <path d="M70,70 Q80,65 90,70" fill="none" stroke="#5D4037" stroke-width="2" />
  <path d="M110,70 Q120,65 130,70" fill="none" stroke="#5D4037" stroke-width="2" />
  
  <!-- Nose -->
  <path d="M100,85 L95,100 L105,100" fill="#FFECB3" />
  
  <!-- Mouth -->
  <path d="M80,110 Q100,120 120,110" fill="none" stroke="#5D4037" stroke-width="2" />
  
  <!-- Shirt/Uniform -->
  <path d="M60,140 L50,200 L150,200 L140,140 Q120,150 100,150 Q80,150 60,140" fill="#9C27B0" />
  
  <!-- Necklace -->
  <path d="M85,145 Q100,160 115,145" fill="none" stroke="gold" stroke-width="2" />
  <circle cx="100" cy="155" r="4" fill="gold" />
  
  <!-- Earrings -->
  <circle cx="55" cy="85" r="4" fill="gold" />
  <circle cx="145" cy="85" r="4" fill="gold" />
</svg> 